<?xml version="1.0" encoding="utf-8"?>
<!-- Generator: Adobe Illustrator 16.0.0, SVG Export Plug-In . SVG Version: 6.00 Build 0)  -->
<!DOCTYPE svg PUBLIC "-//W3C//DTD SVG 1.1//EN" "http://www.w3.org/Graphics/SVG/1.1/DTD/svg11.dtd">
<svg version="1.1" id="Layer_1" xmlns="http://www.w3.org/2000/svg" xmlns:xlink="http://www.w3.org/1999/xlink" x="0px" y="0px"
	 width="1644.09px" height="320px" viewBox="0 401.43 1644.09 320" enable-background="new 0 401.43 1644.09 320"
	 xml:space="preserve">
<g>
	<path fill="#D3C5A3" d="M125.286,420.815c-13.213,2.401-16.496,2.78-28.519,7.372c-8.1,3.093-20.764,7.951-18.402,11.889
		c9.167,15.277,5.501,27.324-8.66,14.013c-7.873-7.398-11.022-5.981-17.891,2.769c-4.455,5.675-8.946,11.522-13.085,17.041
		c-3.762,5.016-6.353,10.214-9.072,15.962c-2.897,6.125-8.002,11.847-8.006,18.672c-0.003,6.96-1.773,14.107-3.221,20.972
		c-1.489,7.063-1.334,12.953-1.604,20.207c-0.25,6.758-3.093,13.652-2.017,20.589c0.961,6.2,1.813,13.275,3.542,19.379
		c3.151,11.124,8.017,21.476,13.503,31.889c3.055,5.798,5.721,11.69,9.894,16.977c1.574,1.993,3.833,5.28,5.438,6.863
		c2.378,2.344,5.944,3.439,8.388,5.74c2.534,2.386,2.81,4.936,4.451,7.976c1.673,3.099,4.308,4.913,6.56,7.66
		c4.045,4.936,9.436,8.715,14.929,12.021c11.181,6.73,22.507,12.656,35.437,15.061c6.048,1.124,11.386,5.071,16.947,7.954
		c6.944,3.598,13.799,7.144,21.407,8.578c13.323,2.513,29.141,3.472,42.078,0.1c6.178-1.611,12.383-1.92,18.572-3.24
		c3.194-0.681,5.425-0.688,8.39-2.208c2.985-1.53,6.026-3.44,8.791-5.247c4.985-3.258,11.733-2.978,17.058-6.262
		c6.624-4.087,13.68-8.172,19.672-13.132c6.23-5.155,11.375-9.625,16.651-15.553c4.26-4.785,5.521-9.815,8.784-15.442
		c3.104-5.354,3.343-10.863,5.861-16.512c2.486-5.575,3.827-11.562,6.349-17c5.773-12.447,5.544-24.401,7.573-37.613
		c0.947-6.169,1.91-12.757-0.709-18.887c-0.648-1.516-10.956,2.859-11.9,0.236c-1.66-4.604,9.401-7.493,8.995-9.119
		c-0.853-3.415-2.871-7.393-4.271-10.604c-1.374-3.155-2.647-5.479-3.32-8.773c-0.68-3.333-0.4-6.694-0.897-10.093
		c-0.912-6.237-1.084-12.077-2.736-18.146c-1.848-6.793-4.253-10.962-8.883-16.26c-4.117-4.71-6.804-9.113-9.187-14.534
		c-2.535-5.771-6.264-11.741-9.688-16.968c-1.595-2.434-3.188-4.729-5.701-6.853c-2.729-2.307-6.021-4.2-8.923-6.36
		c-5.354-3.984-12.73-8.811-19.369-11.021c-3.375-1.123-5.444-1.081-8.51-3.009c-2.397-1.506-5.305-3.423-8.176-4.035
		c-2.86-0.611-5.876-0.071-8.791-1.815c-2.316-1.387-3.895-3.309-6.429-4.442c-5.811-2.601-14.47-4.09-21.002-4.352
		c-7.692-0.308-14.764-1.703-22.609-1.614c-6.457,0.072-12.096,2.206-18.166,3.655c-3.759,0.896-5.775,2.796-9.288,3.611
		C134.782,419.074,129.905,419.977,125.286,420.815z"/>
	<path fill="#FFFFFF" d="M167.407,567.852c0.019-10.688,4.226-42.89,2.648-50.412c-2.047-9.764-0.05-29.628,0.945-37.003
		c0.431-3.196-2.739-17.03-2.52-20.312c0.495,0.164,14.644-0.315,21.562,8.43c3.273,4.138,4.288,7.601,4.75,12.375
		c0.452,4.678,1.73,9.561,0.98,14.679c-0.608,4.146-5.387,23.915-5.196,27.844c0.266,5.438-1.504,11.182-4.146,15.588
		c-5.193,8.659-9.614,15.283-14.485,23.746C171.2,564.08,167.407,567.852,167.407,567.852z"/>
	<path fill="#FFFFFF" d="M172.733,574.269c2.999-1.313,4.514-2.137,8.03-2.361c3.39-0.217,5.92-3.174,8.975-4.24
		c6.417-2.24,10.31-3.657,15.954-7.199c9.96-6.25,23.513-9.812,33.774-15.828c2.423-1.421,18.498-10.471,21.099-10.077
		c5.196,0.788,5.403,2.094,4.278,5.865c-1.232,4.132-5.196,8.03-7.715,11.81c-7.538,11.306-7.578,4.502-19.682,11.65
		c-12.764,7.54-17.379,9.45-31.648,11.181c-10.392,1.26-19.997,2.36-26.295,1.103C178.175,575.903,172.733,574.269,172.733,574.269z
		"/>
	<path fill="#FFFFFF" d="M165.99,567.852c-1.536-15.311-1.066-19.104,0.287-28.213c1.057-7.117,1.95-22.614,0.791-29.569
		c-1.102-6.613-0.441-12.099-0.161-20.974c0.187-5.938,2.677-16.037,0.206-21.536c0.064-0.303-0.544-7.161-0.678-7.435
		c-2.039-1.32-9.542,0.793-13.069,2.361c-5.668,2.52-9.762,8.975-12.159,19.229c-1.712,7.321,2.083,22.97,2.87,28.323
		c0.998,6.782,4.566,20.626,5.983,26.608c0.832,3.513,0,9.59,3.779,16.533C158.404,562.785,165.99,567.852,165.99,567.852z"/>
	<path fill="#FFFFFF" d="M170.266,579.578c2.827,4.772,3.202,5.237,6.718,10.182c3.359,4.725,11.694,8.709,14.918,13.151
		c3.214,4.427,7.842,7.332,12.059,11.097c3.405,3.04,7.791,6.865,11.022,10.288c4.209,4.459,4.625,4.397,7.859,8.985
		c1.186,1.682,11.562,7.212,10.09,8.544c-4.851,4.393-9.132,5.563-15.221,5.144c-4.187-0.289-10.339-5.906-12.702-7.768
		c-3.464-2.729-8.746-8.916-11.546-15.852c-2.204-5.458-6.012-8.568-10.497-14.695c-2.77-3.784-5.271-6.748-7.453-10.813
		c-1.842-3.43-4.789-8.88-5.773-12.596C169.376,583.871,170.266,579.578,170.266,579.578z"/>
	<path fill="#FFFFFF" d="M152.318,571.393c-7.32-4.478-6.121-1.532-12.15-5.755c-6.03-4.221-11.119-5.987-17.766-9.149
		c-5.907-2.811-13.737-4.918-18.72-8.199c-5.54-3.648-13.649-6.15-19.721-8.643c-6.205-2.547-20.552-7.406-21.289-6.413
		c-2.263,3.05-1.548,7.706-0.91,11.632c0.636,3.909,1.936,6.98,4.804,9.366c2.468,2.053,6.568,4.52,9.364,6.588
		c2.813,2.081,6.109,3.948,9.068,5.195c7.353,3.099,13.289,5.226,20.817,6.219c9.552,1.26,9.663,2.861,17.635,3.464
		c3.667,0.275,17.327,0.214,21.309,1.05c6.716,1.409,15.563,0.429,15.746-2.939C160.577,572.481,152.57,571.547,152.318,571.393z"/>
	<path fill="#FFFFFF" d="M163.208,580.027c-10.812,8.706-15.222,22.235-24.208,32.461c-4.809,5.471-11.683,9.345-14.547,16.189
		c-1.215,2.904-3.463,4.461-5.831,6.954c-3.033,3.19-2.134,2.32-6.32,8.16c-1.552,2.166-5.542,5.695-4.597,6.85
		c4.238,5.18,17.448,2.598,23.005,0.226c7.014-2.992,10.707-8.215,16.309-13.792c5.436-5.41,6.647-8.974,10.232-15.93
		c3.5-6.792,5.397-10.073,6.508-17.635c0.492-3.352,1.504-13.14,1.469-16.27c-0.037-3.319-0.105-4.767-1.548-7.688L163.208,580.027z
		"/>
	<path fill="#FFFFFF" d="M177.142,563.729c5.089-4.407,5.881-10.466,11.336-14.484c6.042-4.451,9.731-7.564,14.644-13.228
		c3.984-4.592,11.751-5.024,16.768-8.104c6.211-3.813,19.756-5.836,22.123-5.75c4.962,0.18,14.329-0.271,17.792,5.668
		c1.102,1.89-22.456,10.77-25.035,12.281c-2.579,1.511-25.642,12.834-32.121,16.375c-2.755,1.507-15.29,6.367-17.792,8.188
		c-2.153,1.566-12.028,6.765-12.124,6.455C171.315,566.563,177.142,563.729,177.142,563.729z"/>
	<path fill="#FFFFFF" d="M160.925,571.813c0.419,1.365-9.972-4.934-17.53-8.922c-7.739-4.085-12.386-7.663-20.154-10.813
		c-3.66-1.483-13.163-5.307-16.923-5.932c-3.846-0.64-6.177-5.166-10.369-5.405c-3.596-0.205-11.514-4.394-14.591-6.193
		c-2.84-1.66-17.215-4.934-16.271-6.192c6.025-8.033,13.616-8.848,21.939-6.719c6.728,1.723,14.992,4.892,21.156,8.072
		c6.187,3.193,16.041,9.058,21.776,12.607C142.989,550.379,158.691,564.552,160.925,571.813z"/>
	<path fill="#FFFFFF" d="M154.715,578.018c-5.039,0.631-7.505,2.2-10.375,4.396c-2.673,2.046-5.854,3.527-8.188,5.772
		c-2.737,2.636-3.674,4.829-7.453,6.93c-1.727,0.959-12.898,10.366-19.104,16.375c-5.89,5.702-11.497,13.342-12.701,22.044
		c-0.945,6.823,4.228,11.633,8.607,13.226c1.155,0.42,10.978-15.148,13.436-18.197c2.764-3.43,5.491-5.33,8.607-8.502
		c3.39-3.451,9.532-14.599,12.896-17.063c2.285-1.673,3.643-3.927,5.089-6.402c1.249-2.138,3.368-4.175,4.794-6.519
		c2.881-4.737,7.9-8.138,11.425-11.952L154.715,578.018z"/>
	<path fill="#FFFFFF" d="M172.264,578.218c0,0,9.134,13.229,15.587,16.532c6.453,3.305,20.417,17.479,22.2,19.839
		c1.783,2.36,7.349,5.615,9.919,7.558c2.57,1.94,15.455,16.24,16.532,15.588c2.939-1.784,2.43-7.389,2.204-11.232
		c-0.315-5.353-3.464-8.291-6.508-13.854c-3.044-5.564-8.71-13.434-12.228-16.007s-4.04-3.408-7.558-4.724
		s-12.541-2.675-17.004-4.724c-4.463-2.049-12.015-8.237-16.06-8.976C175.303,577.48,172.264,578.218,172.264,578.218z"/>
	<path fill="#FFFFFF" d="M168.635,634.585c0.057,1.185,0.036,2.772,0.153,3.937c0.179,1.776,2.031,4.88,3.511,6.137
		c1.913,1.624,4.507,0.034,5.476-2.038c0.907-1.94-1.234-4.899-1.894-6.775c-0.528-1.501-0.245-1.786-0.157-3.464
		c0.08-1.542-1.306-4.338-1.102-5.826c-0.146-0.053-0.905-6.085-2.52-5.354c-1.674,1.534-3.053,6.031-3.464,8.503
		C168.639,629.703,168.584,633.52,168.635,634.585z"/>
</g>
<g>
	<path fill="#476964" d="M380.854,517.66c0,4.02,0.824,7.625,2.476,10.816c1.65,3.193,3.875,6.101,6.673,8.719
		c2.798,2.621,6.082,5.022,9.848,7.212c3.769,2.188,7.768,4.306,12.001,6.351s8.594,4.055,13.078,6.027
		c4.483,1.975,8.844,4.055,13.077,6.243s8.234,4.558,12.001,7.104c3.769,2.548,7.051,5.382,9.85,8.503
		c2.799,3.122,5.021,6.604,6.674,10.441c1.648,3.839,2.476,8.163,2.476,12.97c0,8.756-1.65,16.344-4.951,22.765
		c-3.302,6.422-7.715,11.732-13.238,15.931c-5.526,4.197-11.947,7.318-19.268,9.363c-7.319,2.046-14.962,3.068-22.927,3.068
		c-7.033,0-13.669-0.915-19.912-2.745s-11.732-4.377-16.469-7.643c-4.735-3.267-8.486-7.176-11.248-11.732
		c-2.763-4.556-4.144-9.524-4.144-14.906c0-4.735,0.735-8.771,2.207-12.108c1.47-3.337,3.084-6.081,4.844-8.234
		c1.757-2.151,3.426-3.729,5.005-4.734c1.577-1.005,2.475-1.544,2.69-1.614l2.368,5.059c-0.145,0.072-0.826,0.521-2.045,1.346
		c-1.221,0.825-2.529,2.1-3.929,3.82c-1.399,1.724-2.691,3.93-3.875,6.619c-1.184,2.691-1.776,5.975-1.776,9.85
		c0,3.874,0.735,7.338,2.207,10.387c1.47,3.05,3.444,5.722,5.92,8.02c2.477,2.295,5.309,4.269,8.503,5.92
		c3.192,1.649,6.512,2.995,9.956,4.036c3.445,1.039,6.889,1.792,10.333,2.26c3.444,0.467,6.638,0.7,9.58,0.7
		c7.604,0,14.493-0.952,20.666-2.853c6.17-1.902,11.426-4.521,15.77-7.857c4.341-3.337,7.694-7.212,10.063-11.625
		s3.552-9.165,3.552-14.261c0-5.74-1.221-10.691-3.658-14.854c-2.44-4.161-5.671-7.839-9.688-11.032
		c-4.02-3.191-8.594-6.063-13.724-8.61c-5.131-2.546-10.37-5.041-15.714-7.48c-5.348-2.438-10.586-5.006-15.716-7.695
		c-5.131-2.69-9.706-5.794-13.724-9.311c-4.02-3.516-7.249-7.589-9.688-12.217c-2.44-4.629-3.659-10.135-3.659-16.521
		c0-7.104,1.201-13.599,3.604-19.481c2.403-5.883,5.705-10.961,9.902-15.229c4.198-4.27,9.13-7.57,14.8-9.902
		c5.668-2.331,11.803-3.498,18.405-3.498c6.674,0,12.521,0.771,17.545,2.313c5.021,1.545,9.238,3.696,12.646,6.459
		c3.408,2.763,5.956,6.08,7.644,9.955c1.686,3.875,2.529,8.146,2.529,12.81c0,3.805-0.449,7.518-1.347,11.141
		c-0.896,3.624-1.883,6.872-2.959,9.741c-1.076,2.87-2.082,5.203-3.014,6.996c-0.935,1.794-1.438,2.799-1.507,3.014l-4.844-2.69
		c0-0.07,0.411-0.932,1.236-2.583c0.824-1.649,1.739-3.804,2.745-6.458c1.004-2.653,1.919-5.65,2.745-8.987
		c0.824-3.337,1.237-6.728,1.237-10.172c0-3.875-0.699-7.408-2.1-10.603c-1.398-3.191-3.535-5.9-6.403-8.127
		c-2.871-2.224-6.495-3.944-10.871-5.166c-4.377-1.22-9.544-1.829-15.499-1.829c-5.526,0-10.656,0.914-15.394,2.743
		c-4.734,1.83-8.844,4.396-12.324,7.696c-3.481,3.301-6.226,7.194-8.234,11.679C381.858,507.452,380.854,512.35,380.854,517.66z"/>
	<path fill="#476964" d="M501.405,618.19c-4.521,0-8.271-1.83-11.248-5.489c-2.979-3.659-4.467-9.186-4.467-16.576
		c0-4.879,0.984-11.104,2.96-18.675c1.973-7.569,5.397-16.126,10.278-25.671l3.981,1.076c-0.43,1.866-1.13,4.412-2.1,7.643
		c-0.969,3.229-1.938,6.835-2.905,10.817c-0.969,3.981-1.813,8.145-2.529,12.484c-0.718,4.343-1.076,8.522-1.076,12.54
		c0,3.374,0.25,6.118,0.754,8.233c0.501,2.118,1.165,3.768,1.99,4.95c0.824,1.186,1.793,1.992,2.906,2.423
		c1.112,0.431,2.313,0.646,3.605,0.646c2.08,0,4.054-0.646,5.92-1.938c1.865-1.292,3.642-2.995,5.328-5.113
		c1.686-2.115,3.265-4.483,4.735-7.104c1.47-2.617,2.799-5.256,3.981-7.91c1.186-2.654,2.242-5.185,3.177-7.59
		c0.932-2.401,1.685-4.467,2.26-6.188l4.198,1.076c-0.791,2.151-1.706,4.646-2.745,7.479c-1.041,2.836-2.226,5.759-3.552,8.772
		c-1.329,3.014-2.817,5.957-4.468,8.826s-3.517,5.436-5.597,7.694c-2.082,2.262-4.396,4.09-6.943,5.489
		C507.307,617.491,504.489,618.19,501.405,618.19z M518.842,517.875c0,2.513-0.969,4.45-2.906,5.813
		c-1.938,1.363-4.378,2.046-7.318,2.046c-1.507,0-2.925-0.232-4.251-0.7c-1.329-0.466-2.477-1.076-3.445-1.83
		c-0.969-0.753-1.722-1.649-2.26-2.69c-0.538-1.039-0.809-2.135-0.809-3.283c0-2.438,0.951-4.413,2.854-5.92
		c1.899-1.507,4.106-2.261,6.62-2.261c1.793,0,3.406,0.271,4.844,0.809c1.435,0.537,2.653,1.236,3.659,2.099
		c1.004,0.861,1.758,1.813,2.261,2.853C518.59,515.849,518.842,516.871,518.842,517.875z M513.029,517.875
		c0-0.717-0.307-1.381-0.914-1.991c-0.61-0.607-1.525-0.915-2.745-0.915c-2.226,0-3.337,0.826-3.337,2.477
		c0,0.79,0.34,1.453,1.021,1.99c0.683,0.538,1.597,0.808,2.745,0.808c1.076,0,1.883-0.231,2.421-0.699
		C512.761,519.077,513.029,518.521,513.029,517.875z"/>
	<path fill="#476964" d="M566.201,493.765c0,4.521-0.521,9.329-1.562,14.424c-1.041,5.097-2.404,10.263-4.09,15.499
		c-1.688,5.238-3.625,10.514-5.813,15.822c-2.189,5.313-4.396,10.405-6.62,15.284c-2.226,4.881-4.413,9.509-6.565,13.885
		c-2.152,4.378-4.055,8.288-5.705,11.732c0.286,5.884,0.789,11.194,1.507,15.93c0.718,4.736,1.615,8.772,2.691,12.108
		c1.076,3.337,2.368,5.902,3.875,7.695c1.507,1.795,3.229,2.691,5.166,2.691c2.153,0,4.287-1.005,6.404-3.014
		c2.116-2.01,4.252-4.845,6.403-8.504c2.153-3.659,4.342-8.072,6.566-13.238c2.224-5.167,4.483-10.942,6.78-17.33l4.197,1.076
		c-1.723,4.952-3.659,10.172-5.813,15.661c-2.153,5.488-4.558,10.53-7.212,15.123c-2.655,4.593-5.543,8.396-8.664,11.408
		c-3.121,3.014-6.477,4.521-10.064,4.521c-3.587,0-6.603-1.112-9.041-3.337c-2.439-2.225-4.449-5.148-6.026-8.772
		c-1.58-3.622-2.799-7.75-3.66-12.378c-0.86-4.629-1.507-9.346-1.938-14.152c-0.431-4.809-0.684-9.489-0.754-14.048
		c-0.071-4.557-0.107-8.593-0.107-12.108c0-6.528,0.27-13.023,0.808-19.481s1.362-12.629,2.477-18.514
		c1.11-5.883,2.457-11.355,4.036-16.414c1.577-5.059,3.426-9.435,5.543-13.131c2.115-3.695,4.447-6.583,6.997-8.665
		c2.546-2.08,5.326-3.121,8.341-3.121c2.152,0,3.981,0.359,5.49,1.076c1.507,0.718,2.726,1.687,3.658,2.906
		c0.933,1.221,1.614,2.637,2.045,4.252C565.985,490.267,566.201,491.972,566.201,493.765z M535.202,555.763c0,2.729,0,5.399,0,8.02
		s0.071,5.148,0.216,7.589c1.793-3.588,3.694-7.518,5.704-11.786c2.009-4.269,4-8.682,5.974-13.239
		c1.975-4.557,3.856-9.166,5.651-13.831c1.793-4.664,3.372-9.237,4.735-13.724c1.361-4.483,2.458-8.754,3.282-12.809
		s1.238-7.731,1.238-11.032c0-1.077-0.091-2.225-0.27-3.445c-0.181-1.219-0.503-2.35-0.97-3.391c-0.467-1.039-1.13-1.9-1.99-2.583
		c-0.86-0.682-1.975-1.022-3.337-1.022c-2.729,0-5.327,1.776-7.804,5.328c-2.476,3.552-4.628,8.486-6.458,14.8
		c-1.83,6.315-3.283,13.831-4.358,22.55C535.741,535.903,535.202,545.43,535.202,555.763z"/>
	<path fill="#476964" d="M651.125,577.827c-2.225,5.312-4.323,9.867-6.297,13.67c-1.975,3.805-3.93,6.942-5.865,9.418
		c-1.938,2.476-3.93,4.306-5.975,5.489c-2.045,1.185-4.251,1.775-6.619,1.775c-3.229,0-5.975-1.021-8.234-3.066
		c-2.259-2.045-3.604-4.61-4.036-7.696c-2.01,4.665-4.127,8.845-6.351,12.539c-2.225,3.697-4.449,6.836-6.673,9.419
		c-2.227,2.583-4.378,4.574-6.458,5.974c-2.082,1.398-3.912,2.1-5.49,2.1c-1.291,0-2.889-0.538-4.789-1.614
		c-1.902-1.076-3.714-2.869-5.436-5.382c-1.724-2.512-3.194-5.829-4.414-9.957c-1.222-4.125-1.829-9.202-1.829-15.229
		c0-3.944,0.269-7.589,0.807-10.925c0.538-3.337,1.13-6.225,1.776-8.665c0.789-2.869,1.686-5.452,2.689-7.749l4.198,0.432
		c-0.359,3.086-0.592,6.081-0.7,8.986c-0.106,2.906-0.16,5.688-0.16,8.343c0,5.957,0.285,11.266,0.86,15.93
		c0.573,4.665,1.272,8.594,2.1,11.786c0.823,3.193,1.737,5.634,2.743,7.318c1.005,1.688,1.938,2.529,2.8,2.529
		c1.004,0,2.402-0.808,4.197-2.422c1.792-1.614,3.768-3.856,5.921-6.728c2.151-2.868,4.34-6.242,6.564-10.117
		c2.224-3.875,4.232-8.036,6.027-12.485c-0.215-1.362-0.448-3.03-0.699-5.006c-0.253-1.973-0.377-3.676-0.377-5.112
		c0-4.734,0.412-8.538,1.238-11.409c0.823-2.868,1.791-5.059,2.905-6.564c1.111-1.507,2.241-2.493,3.392-2.96
		c1.146-0.466,2.008-0.7,2.583-0.7c1.938,0,2.905,1.472,2.905,4.413c0,1.507-0.197,3.337-0.592,5.49
		c-0.396,2.151-0.897,4.413-1.507,6.779c-0.61,2.368-1.312,4.736-2.099,7.104c-0.791,2.368-1.615,4.558-2.477,6.565
		c0,2.513,0.27,4.611,0.807,6.297c0.539,1.687,1.256,3.051,2.153,4.09c0.896,1.041,1.919,1.775,3.067,2.207
		c1.146,0.431,2.331,0.646,3.552,0.646c3.084,0,6.206-2.17,9.364-6.512c3.156-4.341,6.564-11.032,10.226-20.074L651.125,577.827z"/>
	<path fill="#476964" d="M670.5,627.878c-3.66,0-7.177-0.646-10.549-1.938c-3.373-1.292-6.333-3.246-8.88-5.866
		c-2.548-2.618-4.574-5.901-6.081-9.85c-1.508-3.944-2.262-8.572-2.262-13.885c0-6.458,0.933-12.217,2.8-17.275
		c1.864-5.059,4.251-9.326,7.157-12.809c2.905-3.479,6.151-6.135,9.74-7.965c3.588-1.83,7.104-2.745,10.548-2.745
		c4.449,0,7.982,1.472,10.604,4.413c2.618,2.943,3.929,6.746,3.929,11.409c0,4.02-0.754,7.661-2.26,10.925
		c-1.508,3.267-3.498,6.064-5.975,8.396c-2.477,2.333-5.312,4.146-8.504,5.438c-3.192,1.291-6.512,1.937-9.955,1.937
		c-1.651,0-3.213-0.089-4.683-0.269c-1.472-0.178-2.782-0.377-3.93-0.592c0.431,4.45,1.292,8.288,2.584,11.517
		c1.291,3.229,2.906,5.885,4.844,7.965c1.938,2.082,4.106,3.624,6.513,4.63c2.402,1.005,4.896,1.507,7.479,1.507
		c3.229,0,6.206-0.79,8.934-2.368s5.237-3.642,7.534-6.189c2.296-2.546,4.396-5.471,6.297-8.771c1.9-3.301,3.605-6.655,5.112-10.064
		c1.507-3.406,2.853-6.744,4.037-10.01c1.184-3.265,2.241-6.152,3.175-8.665l4.197,1.076c-0.934,2.368-2.027,5.239-3.282,8.611
		c-1.257,3.374-2.71,6.906-4.358,10.602c-1.651,3.697-3.59,7.392-5.813,11.087c-2.226,3.696-4.736,6.996-7.535,9.902
		c-2.798,2.904-5.974,5.272-9.524,7.104C678.841,626.966,674.876,627.878,670.5,627.878z M673.189,559.745
		c-2.654,0-5.257,0.844-7.804,2.529c-2.548,1.687-4.825,4.001-6.834,6.941c-2.01,2.943-3.643,6.423-4.897,10.44
		c-1.256,4.02-1.883,8.325-1.883,12.916c0.932,0.359,2.241,0.664,3.929,0.915c1.686,0.252,3.749,0.377,6.188,0.377
		c2.584,0,5.148-0.557,7.696-1.669c2.546-1.111,4.844-2.653,6.889-4.628c2.045-1.974,3.694-4.322,4.951-7.051
		c1.255-2.727,1.884-5.704,1.884-8.935c0-1.577-0.216-3.084-0.646-4.521c-0.43-1.435-1.076-2.689-1.938-3.767
		c-0.859-1.076-1.92-1.938-3.175-2.583C676.293,560.068,674.84,559.745,673.189,559.745z"/>
	<path fill="#476964" d="M714.845,572.123c-0.718,2.513-1.437,4.665-2.151,6.458c-0.719,1.794-1.508,3.463-2.368,5.005
		c-0.861,1.544-1.813,3.014-2.854,4.413c-1.041,1.399-2.206,2.925-3.498,4.575l-0.859-0.861c1.648-4.232,3.103-8.216,4.358-11.947
		c1.254-3.729,2.386-7.463,3.392-11.193c-1.148-1.65-2.138-3.714-2.96-6.189c-0.826-2.476-1.238-5.436-1.238-8.88
		c0-3.084,0.484-5.65,1.453-7.695s2.241-3.066,3.82-3.066c0.86,0,1.669,0.396,2.423,1.184c0.753,0.791,1.381,1.83,1.883,3.122
		c0.502,1.291,0.896,2.781,1.185,4.467c0.286,1.688,0.432,3.463,0.432,5.328c0,0.86-0.056,1.794-0.162,2.798
		c-0.107,1.006-0.233,2.028-0.377,3.067c-0.146,1.042-0.322,2.046-0.538,3.014c-0.215,0.969-0.431,1.776-0.646,2.422
		c0.432,0.36,1.13,0.664,2.1,0.915c0.969,0.252,2.241,0.377,3.82,0.377c2.728,0,5.13-0.394,7.212-1.185
		c2.08-0.789,3.729-1.793,4.95-3.014c1.077-1.723,1.92-3.05,2.53-3.982c0.607-0.932,1.093-1.631,1.452-2.099
		c0.358-0.466,0.628-0.754,0.808-0.861s0.412-0.161,0.7-0.161c0.788,0,1.435,0.216,1.937,0.646c0.503,0.431,0.755,1.041,0.755,1.83
		c0,0.216-0.107,0.503-0.323,0.86c-0.215,0.359-0.502,0.825-0.86,1.399c-3.014,4.377-5.382,9.186-7.104,14.423
		c-1.722,5.238-2.583,11.051-2.583,17.438c0,7.392,1.201,12.737,3.605,16.037c2.402,3.302,5.829,4.951,10.279,4.951
		c2.438,0,4.771-0.733,6.996-2.207c2.224-1.47,4.413-3.767,6.564-6.888c2.153-3.122,4.322-7.141,6.514-12.057
		c2.188-4.913,4.537-10.853,7.05-17.813l4.197,1.076c-3.086,9.114-5.992,16.595-8.718,22.441c-2.729,5.85-5.42,10.479-8.073,13.886
		c-2.655,3.409-5.382,5.776-8.182,7.104c-2.799,1.329-5.849,1.992-9.147,1.992c-2.082,0-4.234-0.467-6.459-1.399
		c-2.225-0.932-4.251-2.402-6.081-4.412s-3.319-4.61-4.467-7.805c-1.148-3.191-1.724-7.05-1.724-11.57
		c0-2.224,0.197-4.537,0.594-6.942c0.393-2.402,0.914-4.735,1.561-6.996c0.646-2.26,1.361-4.448,2.152-6.565
		c0.789-2.114,1.613-4.035,2.476-5.759c-2.583,1.223-5.382,1.83-8.396,1.83C719.329,573.63,716.854,573.129,714.845,572.123z"/>
	<path fill="#476964" d="M842.716,517.66c0,4.02,0.824,7.625,2.477,10.816c1.648,3.193,3.875,6.101,6.673,8.719
		c2.799,2.621,6.081,5.022,9.849,7.212c3.769,2.188,7.767,4.306,12.001,6.351c4.233,2.045,8.593,4.055,13.077,6.027
		c4.484,1.975,8.844,4.055,13.078,6.243c4.231,2.188,8.233,4.558,12.001,7.104c3.768,2.548,7.051,5.382,9.849,8.503
		c2.8,3.122,5.021,6.604,6.675,10.441c1.648,3.839,2.475,8.163,2.475,12.97c0,8.756-1.651,16.344-4.951,22.765
		c-3.301,6.422-7.714,11.732-13.238,15.931c-5.526,4.197-11.947,7.318-19.268,9.363c-7.32,2.046-14.961,3.068-22.926,3.068
		c-7.033,0-13.67-0.915-19.912-2.745c-6.243-1.83-11.732-4.377-16.469-7.643c-4.737-3.267-8.486-7.176-11.248-11.732
		c-2.764-4.556-4.145-9.524-4.145-14.906c0-4.735,0.735-8.771,2.206-12.108s3.085-6.081,4.844-8.234
		c1.759-2.151,3.427-3.729,5.007-4.734c1.576-1.005,2.476-1.544,2.689-1.614l2.368,5.059c-0.146,0.072-0.826,0.521-2.045,1.346
		c-1.222,0.825-2.529,2.1-3.929,3.82c-1.399,1.724-2.69,3.93-3.875,6.619c-1.186,2.691-1.776,5.975-1.776,9.85
		c0,3.874,0.735,7.338,2.207,10.387c1.47,3.05,3.443,5.722,5.92,8.02c2.476,2.295,5.31,4.269,8.503,5.92
		c3.191,1.649,6.513,2.995,9.956,4.036c3.444,1.039,6.889,1.792,10.333,2.26c3.443,0.467,6.637,0.7,9.58,0.7
		c7.604,0,14.492-0.952,20.666-2.853c6.171-1.902,11.426-4.521,15.769-7.857c4.34-3.337,7.695-7.212,10.063-11.625
		c2.367-4.413,3.552-9.165,3.552-14.261c0-5.74-1.221-10.691-3.659-14.854c-2.439-4.161-5.67-7.839-9.688-11.032
		c-4.021-3.191-8.595-6.063-13.725-8.61c-5.131-2.546-10.37-5.041-15.715-7.48c-5.346-2.438-10.585-5.006-15.715-7.695
		c-5.131-2.69-9.705-5.794-13.723-9.311c-4.021-3.516-7.25-7.589-9.688-12.217c-2.44-4.629-3.659-10.135-3.659-16.521
		c0-7.104,1.2-13.599,3.605-19.481c2.402-5.883,5.703-10.961,9.901-15.229c4.197-4.27,9.13-7.57,14.8-9.902
		c5.668-2.331,11.804-3.498,18.405-3.498c6.673,0,12.521,0.771,17.545,2.313c5.021,1.545,9.237,3.696,12.646,6.459
		c3.407,2.763,5.955,6.08,7.643,9.955c1.687,3.875,2.529,8.146,2.529,12.81c0,3.805-0.449,7.518-1.346,11.141
		c-0.897,3.624-1.884,6.872-2.96,9.741c-1.076,2.87-2.081,5.203-3.015,6.996c-0.933,1.794-1.436,2.799-1.506,3.014l-4.844-2.69
		c0-0.07,0.412-0.932,1.237-2.583c0.823-1.649,1.738-3.804,2.744-6.458c1.004-2.653,1.92-5.65,2.744-8.987s1.238-6.728,1.238-10.172
		c0-3.875-0.699-7.408-2.099-10.603c-1.399-3.191-3.535-5.9-6.404-8.127c-2.871-2.224-6.495-3.944-10.871-5.166
		c-4.378-1.22-9.544-1.829-15.499-1.829c-5.527,0-10.656,0.914-15.393,2.743c-4.735,1.83-8.845,4.396-12.324,7.696
		c-3.481,3.301-6.227,7.194-8.233,11.679C843.72,507.452,842.716,512.35,842.716,517.66z"/>
	<path fill="#476964" d="M974.461,627.878c-3.66,0-7.177-0.646-10.549-1.938c-3.373-1.292-6.333-3.246-8.88-5.866
		c-2.548-2.618-4.574-5.901-6.081-9.85c-1.507-3.944-2.262-8.572-2.262-13.885c0-6.458,0.934-12.217,2.8-17.275
		c1.864-5.059,4.252-9.326,7.157-12.809c2.905-3.479,6.151-6.135,9.74-7.965c3.588-1.83,7.104-2.745,10.549-2.745
		c4.448,0,7.981,1.472,10.603,4.413c2.618,2.943,3.929,6.746,3.929,11.409c0,4.02-0.754,7.661-2.26,10.925
		c-1.507,3.267-3.498,6.064-5.975,8.396c-2.476,2.333-5.312,4.146-8.504,5.438c-3.192,1.291-6.512,1.937-9.955,1.937
		c-1.651,0-3.213-0.089-4.683-0.269c-1.472-0.178-2.782-0.377-3.93-0.592c0.431,4.45,1.292,8.288,2.584,11.517
		c1.291,3.229,2.906,5.885,4.844,7.965c1.938,2.082,4.106,3.624,6.513,4.63c2.402,1.005,4.896,1.507,7.479,1.507
		c3.229,0,6.206-0.79,8.935-2.368c2.727-1.578,5.236-3.642,7.534-6.189c2.295-2.546,4.396-5.471,6.296-8.771
		c1.9-3.301,3.606-6.655,5.112-10.064c1.508-3.406,2.854-6.744,4.037-10.01c1.184-3.265,2.241-6.152,3.175-8.665l4.198,1.076
		c-0.935,2.368-2.028,5.239-3.283,8.611c-1.257,3.374-2.71,6.906-4.358,10.602c-1.651,3.697-3.59,7.392-5.813,11.087
		c-2.226,3.696-4.736,6.996-7.534,9.902c-2.799,2.904-5.974,5.272-9.525,7.104C982.802,626.963,978.837,627.878,974.461,627.878z
		 M977.151,559.745c-2.655,0-5.257,0.844-7.805,2.529c-2.548,1.687-4.825,4.001-6.834,6.941c-2.01,2.943-3.643,6.423-4.897,10.44
		c-1.256,4.02-1.883,8.325-1.883,12.916c0.932,0.359,2.241,0.664,3.929,0.915c1.686,0.252,3.749,0.377,6.188,0.377
		c2.584,0,5.148-0.557,7.696-1.669c2.546-1.111,4.844-2.653,6.889-4.628c2.045-1.974,3.694-4.322,4.951-7.051
		c1.255-2.727,1.884-5.704,1.884-8.935c0-1.577-0.216-3.084-0.646-4.521c-0.43-1.435-1.076-2.689-1.938-3.767
		c-0.859-1.076-1.92-1.938-3.175-2.583C980.254,560.068,978.801,559.745,977.151,559.745z"/>
	<path fill="#476964" d="M1095.442,577.827c-2.943,7.966-5.615,14.639-8.02,20.021c-2.405,5.383-4.735,9.726-6.996,13.023
		c-2.261,3.302-4.504,5.67-6.728,7.104c-2.226,1.438-4.665,2.152-7.319,2.152c-3.229,0-5.992-1.13-8.288-3.391
		c-2.297-2.262-3.73-5.758-4.305-10.494c-2.298,4.951-5.274,8.986-8.934,12.107c-3.66,3.122-8.254,4.684-13.777,4.684
		c-2.943,0-5.759-0.538-8.45-1.614c-2.69-1.076-5.077-2.745-7.157-5.006c-2.082-2.26-3.75-5.112-5.005-8.558
		c-1.256-3.443-1.884-7.496-1.884-12.161c0-4.736,0.592-9.187,1.776-13.349c1.184-4.16,2.743-7.98,4.682-11.463
		c1.938-3.479,4.18-6.582,6.728-9.31c2.547-2.728,5.185-5.022,7.911-6.89c2.728-1.864,5.452-3.3,8.182-4.306
		c2.726-1.004,5.237-1.507,7.534-1.507c2.008,0,3.944,0.252,5.813,0.753c1.865,0.503,3.533,1.311,5.005,2.422
		c1.47,1.113,2.654,2.602,3.552,4.467c0.896,1.867,1.347,4.198,1.347,6.997c0,3.301-0.629,6.172-1.884,8.61
		c-1.257,2.439-2.764,4.484-4.521,6.136c-1.759,1.651-3.552,2.979-5.382,3.981c-1.83,1.006-3.283,1.723-4.359,2.152l-1.292-4.198
		c0.216,0,1.023-0.285,2.422-0.86c1.399-0.573,2.869-1.523,4.413-2.853c1.542-1.326,2.96-3.03,4.252-5.112
		c1.292-2.08,1.938-4.628,1.938-7.643c0-3.443-0.969-6.082-2.906-7.911c-1.938-1.83-4.413-2.744-7.427-2.744
		c-2.298,0-4.988,0.824-8.073,2.476c-3.086,1.651-6.046,4.234-8.88,7.75c-2.835,3.516-5.238,7.965-7.211,13.347
		c-1.976,5.382-2.96,11.805-2.96,19.268c0,7.391,1.309,13.022,3.929,16.897c2.618,3.875,6.152,5.813,10.603,5.813
		c2.225,0,4.358-0.628,6.403-1.884s3.931-2.924,5.651-5.006c1.722-2.081,3.265-4.502,4.628-7.266
		c1.362-2.762,2.547-5.613,3.552-8.557c0-2.296,0.271-5.006,0.809-8.127c0.537-3.121,1.381-6.298,2.528-9.525l6.565,2.152
		c-0.359,0.934-0.718,2.151-1.076,3.659c-0.36,1.508-0.699,3.158-1.021,4.951c-0.322,1.794-0.593,3.644-0.808,5.543
		c-0.216,1.902-0.323,3.75-0.323,5.544c0,5.598,0.557,9.454,1.669,11.57c1.111,2.117,3.03,3.175,5.759,3.175
		c1.578,0,3.139-0.572,4.682-1.722c1.543-1.147,3.211-3.157,5.006-6.028c1.793-2.869,3.768-6.762,5.92-11.678
		c2.152-4.914,4.664-11.141,7.534-18.675L1095.442,577.827z"/>
	<path fill="#476964" d="M1187.471,639.718c-1.65-2.439-3.319-5.813-5.006-10.117c-1.687-4.306-3.266-9.042-4.734-14.208
		c-1.473-5.167-2.765-10.512-3.875-16.037c-1.113-5.524-1.957-10.728-2.529-15.607c-2.871-0.573-5.187-1.291-6.942-2.152
		c-1.76-0.86-3.122-1.775-4.091-2.745c-0.968-0.968-1.614-1.953-1.938-2.959c-0.322-1.004-0.483-1.899-0.483-2.69
		c0-2.438,1.184-4.844,3.552-7.211c2.367-2.368,5.598-4.376,9.688-6.028c0.573-7.031,1.543-13.579,2.905-19.644
		c1.362-6.063,2.89-11.587,4.574-16.575c1.687-4.987,3.427-9.4,5.221-13.239c1.793-3.838,3.444-7.086,4.951-9.741
		c1.507-2.652,2.763-4.682,3.769-6.081c1.004-1.398,1.507-2.135,1.507-2.207l3.767,1.83c-0.646,1.438-1.65,3.839-3.014,7.211
		c-1.363,3.374-2.781,7.681-4.251,12.917c-1.473,5.238-2.871,11.374-4.198,18.405c-1.328,7.033-2.278,14.892-2.854,23.572
		c1.221-0.216,2.438-0.412,3.66-0.592c1.22-0.18,2.477-0.34,3.768-0.484l0.431,4.197c-1.507,0.145-2.942,0.307-4.306,0.484
		c-1.363,0.18-2.69,0.377-3.982,0.592c-0.145,2.082-0.215,4.234-0.215,6.458c0,2.226,0,4.484,0,6.78v6.996h6.996
		c5.74,0,11.642-0.538,17.706-1.613c6.063-1.076,11.965-2.744,17.706-5.006c5.74-2.261,11.141-5.167,16.199-8.719
		c5.058-3.552,9.487-7.804,13.293-12.755c3.803-4.951,6.798-10.656,8.986-17.114s3.283-13.705,3.283-21.742
		c0-6.527-1.021-12.144-3.066-16.845c-2.046-4.698-4.72-8.7-8.021-12.001c-3.301-3.3-7.068-5.955-11.302-7.965
		c-4.234-2.008-8.521-3.569-12.862-4.683c-4.342-1.111-8.557-1.865-12.646-2.261c-4.092-0.394-7.681-0.593-10.765-0.593
		c-6.243,0-12.846,0.809-19.806,2.422c-6.96,1.614-13.831,3.697-20.611,6.243c-6.781,2.548-13.275,5.399-19.482,8.557
		c-6.207,3.159-11.643,6.243-16.307,9.258l-2.476-3.553c0.286-0.143,1.561-0.932,3.821-2.367s5.291-3.176,9.096-5.221
		c3.802-2.046,8.305-4.232,13.508-6.565c5.202-2.331,10.907-4.483,17.114-6.458c6.206-1.974,12.825-3.622,19.857-4.951
		c7.032-1.327,14.279-1.991,21.743-1.991c8.753,0,17.113,1.095,25.078,3.283s14.962,5.489,20.989,9.902
		c6.026,4.411,10.834,9.975,14.423,16.684c3.588,6.71,5.382,14.621,5.382,23.733c0,7.464-1.237,14.278-3.714,20.449
		c-2.475,6.172-5.884,11.717-10.225,16.63c-4.344,4.915-9.455,9.222-15.338,12.916c-5.886,3.696-12.235,6.766-19.053,9.203
		c-6.816,2.44-13.922,4.271-21.312,5.489c-7.393,1.221-14.746,1.83-22.065,1.83h-5.92c0.358,8.109,1.201,16.646,2.529,25.617
		c1.327,8.971,3.246,18.37,5.759,28.2L1187.471,639.718z M1162.284,573.199c0,1.076,0.627,2.136,1.883,3.176
		c1.255,1.041,3.498,1.955,6.729,2.744c-0.146-1.004-0.216-1.991-0.216-2.96s0-1.954,0-2.96c0-1.436,0-2.853,0-4.251
		c0-1.399,0.07-2.78,0.216-4.146C1165.153,567.747,1162.284,570.545,1162.284,573.199z"/>
	<path fill="#476964" d="M1328.795,507.973c0,4.521-0.771,9.579-2.313,15.177c-1.544,5.598-3.644,11.696-6.298,18.298
		c-2.654,6.604-5.758,13.688-9.31,21.259s-7.338,15.553-11.356,23.948c-0.358,3.443-0.663,6.906-0.913,10.387
		c-0.252,3.48-0.484,6.979-0.7,10.494c0.932-2.368,2.099-5.112,3.498-8.234c1.398-3.121,2.977-6.35,4.736-9.687
		c1.757-3.337,3.676-6.62,5.758-9.85c2.081-3.229,4.287-6.116,6.62-8.665c2.331-2.546,4.807-4.608,7.427-6.188
		c2.618-1.577,5.328-2.368,8.127-2.368c1.937,0,3.693,0.359,5.272,1.076c1.578,0.718,2.923,1.723,4.036,3.014
		c1.112,1.292,1.975,2.799,2.584,4.521c0.608,1.723,0.914,3.589,0.914,5.597c0,2.583-0.341,5.365-1.021,8.342
		c-0.684,2.979-1.453,6.011-2.314,9.096c-0.859,3.087-1.633,6.173-2.313,9.258c-0.685,3.086-1.023,5.99-1.023,8.719
		c0,2.225,0.539,4.107,1.615,5.65c1.076,1.544,3.049,2.313,5.92,2.313c2.008,0,3.982-0.824,5.92-2.476
		c1.938-1.65,3.803-3.784,5.598-6.404c1.793-2.619,3.461-5.561,5.005-8.826c1.542-3.265,2.977-6.512,4.306-9.741
		c1.327-3.229,2.511-6.26,3.552-9.096c1.039-2.834,1.884-5.112,2.529-6.834l4.198,1.076c-1.223,3.229-2.477,6.638-3.769,10.226
		s-2.674,7.157-4.144,10.709c-1.473,3.553-3.068,6.942-4.79,10.172c-1.724,3.229-3.606,6.081-5.651,8.558
		c-2.044,2.476-4.288,4.45-6.727,5.92c-2.44,1.472-5.166,2.207-8.182,2.207c-2.728,0-4.986-0.395-6.779-1.185
		c-1.795-0.79-3.213-1.865-4.252-3.229c-1.041-1.362-1.776-2.995-2.207-4.897c-0.431-1.899-0.646-3.999-0.646-6.297
		c0-2.438,0.358-5.221,1.076-8.342c0.717-3.121,1.524-6.351,2.422-9.688c0.896-3.337,1.704-6.674,2.422-10.011
		c0.716-3.337,1.076-6.403,1.076-9.203c0-1.576-0.376-2.977-1.13-4.196c-0.754-1.221-2.063-1.83-3.929-1.83
		c-2.943,0-5.777,1.06-8.504,3.175c-2.729,2.118-5.312,4.862-7.749,8.234c-2.44,3.374-4.736,7.176-6.89,11.408
		c-2.151,4.234-4.127,8.449-5.92,12.646c-1.795,4.198-3.391,8.199-4.79,12.002c-1.399,3.804-2.602,6.961-3.604,9.472l-4.198-0.646
		c0-0.358-0.02-0.844-0.054-1.453c-0.036-0.609-0.055-1.453-0.055-2.529s-0.019-2.422-0.054-4.036
		c-0.037-1.614-0.054-3.568-0.054-5.866c0-6.743,0.178-15.643,0.538-26.692c0.357-11.05,1.22-24.289,2.583-39.718
		c0.572-7.534,1.436-13.975,2.584-19.32c1.146-5.345,2.438-9.83,3.875-13.454c1.435-3.623,2.959-6.513,4.574-8.665
		c1.613-2.153,3.175-3.784,4.682-4.896c1.507-1.111,2.906-1.83,4.198-2.153c1.291-0.322,2.368-0.484,3.229-0.484
		c3.3,0,5.92,1.292,7.857,3.875C1327.825,500.222,1328.795,503.667,1328.795,507.973z M1318.247,498.178
		c-1.867,0-3.535,0.915-5.006,2.744c-1.473,1.83-2.798,4.414-3.981,7.75c-1.185,3.337-2.207,7.338-3.067,12.001
		c-0.86,4.666-1.651,9.849-2.368,15.554c-0.719,5.704-1.346,11.841-1.883,18.405c-0.539,6.565-1.061,13.4-1.563,20.505
		c3.373-6.459,6.513-12.862,9.419-19.213c2.905-6.351,5.437-12.433,7.588-18.245c2.153-5.812,3.856-11.247,5.112-16.307
		c1.255-5.06,1.884-9.525,1.884-13.4c0-1.146-0.091-2.313-0.269-3.498c-0.181-1.184-0.504-2.24-0.97-3.175
		c-0.468-0.932-1.096-1.686-1.884-2.261C1320.471,498.465,1319.466,498.178,1318.247,498.178z"/>
	<path fill="#476964" d="M1401.557,619.697c4.019,0,7.874-1.471,11.57-4.413c3.695-2.941,6.582-7.211,8.665-12.81h-0.861
		c-4.449,0-8.557-0.753-12.323-2.26c-3.768-1.507-7.033-3.605-9.795-6.298c-2.764-2.69-4.936-5.92-6.513-9.687
		c-1.579-3.769-2.368-7.911-2.368-12.433c0-2.512,0.34-5.059,1.022-7.643c0.681-2.583,1.739-4.897,3.175-6.942
		s3.3-3.713,5.598-5.005c2.296-1.292,5.021-1.938,8.181-1.938c2.583,0,5.13,0.521,7.643,1.562c2.511,1.041,4.771,2.817,6.781,5.328
		c2.008,2.513,3.641,5.902,4.896,10.172c1.256,4.27,1.885,9.67,1.885,16.199c0,2.438-0.107,4.86-0.322,7.265
		c-0.216,2.405-0.61,4.754-1.186,7.051c2.8-0.502,5.291-1.398,7.48-2.69c2.188-1.292,4.126-2.854,5.813-4.684
		c1.687-1.829,3.177-3.909,4.468-6.241c1.292-2.331,2.476-4.825,3.553-7.48l4.197,1.076c-1.507,4.09-3.248,7.57-5.222,10.439
		c-1.975,2.871-4.09,5.274-6.35,7.212c-2.261,1.938-4.629,3.429-7.104,4.468c-2.477,1.041-5.042,1.739-7.696,2.099
		c-1.005,3.517-2.332,6.818-3.981,9.902c-1.65,3.086-3.66,5.776-6.027,8.072c-2.368,2.298-5.112,4.108-8.233,5.437
		c-3.122,1.328-6.62,1.991-10.495,1.991c-3.229,0-6.476-0.663-9.74-1.991c-3.267-1.327-6.207-3.372-8.825-6.136
		c-2.62-2.762-4.736-6.242-6.352-10.44c-1.614-4.197-2.422-9.202-2.422-15.015c0-3.804,0.447-7.534,1.346-11.194
		c0.896-3.659,2.152-7.12,3.768-10.387c1.614-3.266,3.534-6.313,5.759-9.149c2.224-2.833,4.628-5.29,7.212-7.373l1.614,2.691
		c-1.651,1.507-3.229,3.374-4.736,5.597c-1.507,2.225-2.87,4.683-4.09,7.373c-1.221,2.691-2.188,5.526-2.906,8.503
		c-0.718,2.979-1.076,5.938-1.076,8.881c0,5.813,0.734,10.692,2.207,14.638c1.471,3.947,3.354,7.122,5.649,9.525
		c2.296,2.405,4.88,4.127,7.75,5.167C1396.03,619.178,1398.828,619.697,1401.557,619.697z M1407.691,554.471
		c-1.938,0-3.732,0.414-5.383,1.238c-1.65,0.825-3.086,1.955-4.306,3.391c-1.221,1.437-2.188,3.158-2.906,5.166
		c-0.718,2.011-1.075,4.235-1.075,6.674c0,4.234,0.717,8.036,2.151,11.408c1.437,3.374,3.392,6.243,5.866,8.611
		s5.363,4.181,8.665,5.436c3.3,1.257,6.852,1.885,10.656,1.885h2.045c0.573-2.225,0.969-4.558,1.184-6.997
		c0.216-2.438,0.323-5.095,0.323-7.966c-0.146-5.523-0.7-10.135-1.669-13.83c-0.969-3.694-2.206-6.654-3.713-8.881
		c-1.507-2.223-3.283-3.802-5.328-4.734C1412.158,554.938,1409.987,554.471,1407.691,554.471z"/>
	<path fill="#476964" d="M1426.204,538.756c1.077,0.646,2.368,1.399,3.875,2.261c1.507,0.862,3.267,1.688,5.274,2.477
		c2.01,0.79,4.252,1.524,6.728,2.206c2.476,0.683,5.183,1.168,8.126,1.453c1.004-6.458,2.296-12.287,3.875-17.49
		c1.578-5.202,3.318-9.65,5.221-13.347c1.9-3.695,3.875-6.529,5.92-8.505c2.045-1.973,4.036-2.959,5.975-2.959
		c2.224,0,3.803,0.86,4.735,2.583s1.398,4.021,1.398,6.89c0,2.082-0.215,4.377-0.646,6.889c-0.431,2.513-1.006,5.186-1.723,8.02
		c-0.718,2.835-1.579,5.776-2.583,8.825c-1.005,3.052-2.045,6.081-3.121,9.096c7.175-0.646,13.794-1.83,19.858-3.553
		c6.063-1.722,11.317-3.479,15.769-5.273l2.045,3.981c-5.884,2.227-11.983,4.217-18.298,5.976
		c-6.313,1.759-13.383,2.853-21.203,3.281c-1.795,4.666-3.643,9.097-5.544,13.294s-3.643,7.841-5.22,10.925
		c0.07,4.02,0.304,8.379,0.699,13.078c0.394,4.699,1.184,9.096,2.368,13.186c1.184,4.09,2.869,7.499,5.059,10.226
		c2.188,2.729,5.076,4.091,8.665,4.091c3.015,0,5.775-1.273,8.287-3.821c2.512-2.547,4.825-5.775,6.943-9.688
		c2.114-3.909,4.07-8.196,5.864-12.861c1.793-4.664,3.48-9.077,5.06-13.239l4.198,1.076c-1.006,2.583-2.082,5.489-3.229,8.719
		s-2.438,6.512-3.875,9.848c-1.437,3.338-3.014,6.566-4.735,9.688c-1.723,3.121-3.624,5.92-5.705,8.396
		c-2.08,2.477-4.377,4.45-6.889,5.92c-2.513,1.473-5.238,2.207-8.18,2.207c-3.158,0-6.119-0.717-8.88-2.151
		c-2.765-1.437-5.167-4-7.212-7.696c-2.046-3.693-3.659-8.719-4.845-15.068c-1.184-6.352-1.774-14.439-1.774-24.271
		c0-7.893,0.431-15.247,1.291-22.065c-6.172-0.788-11.355-2.025-15.554-3.713c-4.197-1.686-7.443-3.317-9.74-4.896L1426.204,538.756
		z M1456.665,567.172c1.22-2.512,2.368-5.041,3.444-7.589c1.076-2.546,2.115-5.147,3.121-7.803h-3.981h-2.153
		c-0.145,2.297-0.252,4.719-0.322,7.265c-0.071,2.548-0.106,5.187-0.106,7.911L1456.665,567.172L1456.665,567.172z
		 M1471.842,510.556c-0.646,0-1.613,0.646-2.906,1.938c-1.291,1.291-2.655,3.391-4.09,6.297c-1.437,2.906-2.816,6.71-4.145,11.409
		c-1.328,4.7-2.386,10.494-3.175,17.383h2.045h5.273c1.291-3.588,2.423-7.067,3.392-10.44c0.969-3.371,1.812-6.513,2.529-9.418
		c0.717-2.905,1.255-5.524,1.613-7.856c0.358-2.331,0.538-4.252,0.538-5.759C1472.918,511.74,1472.559,510.556,1471.842,510.556z"/>
	<path fill="#476964" d="M1526.521,619.697c4.018,0,7.873-1.471,11.569-4.413c3.695-2.941,6.583-7.211,8.665-12.81h-0.861
		c-4.448,0-8.557-0.753-12.323-2.26c-3.768-1.507-7.033-3.605-9.795-6.298c-2.764-2.69-4.935-5.92-6.513-9.687
		c-1.578-3.769-2.367-7.911-2.367-12.433c0-2.512,0.34-5.059,1.021-7.643c0.682-2.583,1.739-4.897,3.176-6.942
		c1.436-2.045,3.301-3.713,5.598-5.005c2.296-1.292,5.021-1.938,8.181-1.938c2.583,0,5.129,0.521,7.642,1.562
		c2.512,1.041,4.771,2.817,6.781,5.328c2.008,2.513,3.643,5.902,4.897,10.172c1.254,4.27,1.883,9.67,1.883,16.199
		c0,2.438-0.107,4.86-0.322,7.265c-0.216,2.405-0.61,4.754-1.184,7.051c2.798-0.502,5.291-1.398,7.479-2.69s4.125-2.854,5.813-4.684
		c1.685-1.829,3.175-3.909,4.467-6.241c1.291-2.331,2.476-4.825,3.552-7.48l4.197,1.076c-1.507,4.09-3.247,7.57-5.22,10.439
		c-1.976,2.871-4.09,5.274-6.352,7.212c-2.261,1.938-4.628,3.429-7.104,4.468c-2.476,1.041-5.042,1.739-7.695,2.099
		c-1.006,3.517-2.333,6.818-3.981,9.902c-1.651,3.086-3.66,5.776-6.027,8.072c-2.368,2.298-5.113,4.108-8.234,5.437
		s-6.619,1.991-10.494,1.991c-3.229,0-6.477-0.663-9.74-1.991c-3.268-1.327-6.208-3.372-8.826-6.136
		c-2.62-2.762-4.735-6.242-6.352-10.44c-1.613-4.197-2.422-9.202-2.422-15.015c0-3.804,0.448-7.534,1.347-11.194
		c0.896-3.659,2.151-7.12,3.768-10.387c1.614-3.266,3.533-6.313,5.758-9.149c2.225-2.833,4.629-5.29,7.212-7.373l1.614,2.691
		c-1.651,1.507-3.229,3.374-4.735,5.597c-1.508,2.225-2.87,4.683-4.091,7.373c-1.221,2.691-2.188,5.526-2.905,8.503
		c-0.719,2.979-1.076,5.938-1.076,8.881c0,5.813,0.734,10.692,2.207,14.638c1.47,3.947,3.354,7.122,5.649,9.525
		c2.296,2.405,4.88,4.127,7.75,5.167C1520.994,619.178,1523.793,619.697,1526.521,619.697z M1532.656,554.471
		c-1.938,0-3.732,0.414-5.382,1.238c-1.651,0.825-3.087,1.955-4.307,3.391c-1.221,1.437-2.188,3.158-2.905,5.166
		c-0.719,2.011-1.076,4.235-1.076,6.674c0,4.234,0.716,8.036,2.151,11.408c1.436,3.374,3.392,6.243,5.866,8.611
		s5.363,4.181,8.665,5.436c3.3,1.257,6.853,1.885,10.655,1.885h2.045c0.573-2.225,0.969-4.558,1.185-6.997
		c0.216-2.438,0.322-5.095,0.322-7.966c-0.145-5.523-0.699-10.135-1.668-13.83c-0.969-3.694-2.207-6.654-3.714-8.881
		c-1.507-2.223-3.282-3.802-5.327-4.734C1537.123,554.938,1534.951,554.471,1532.656,554.471z"/>
	<path fill="#476964" d="M1581.63,568.57c-0.791,2.083-1.562,4.128-2.313,6.136c-0.754,2.01-1.579,4.02-2.477,6.027
		c-0.897,2.01-1.956,3.981-3.176,5.92c-1.221,1.938-2.689,3.911-4.413,5.92l-0.86-0.86c1.865-4.521,3.516-9.148,4.951-13.886
		c1.436-4.735,2.869-10.045,4.307-15.931c-0.36-1.004-0.684-1.864-0.969-2.582c-0.288-0.718-0.538-1.382-0.755-1.991
		c-0.216-0.608-0.396-1.255-0.538-1.938c-0.145-0.681-0.216-1.453-0.216-2.313c0-1.146,0.162-2.421,0.484-3.821
		c0.323-1.399,0.789-2.707,1.399-3.929c0.608-1.22,1.309-2.241,2.099-3.067c0.789-0.824,1.615-1.237,2.476-1.237
		c1.004,0,1.813,0.233,2.422,0.699c0.609,0.468,1.095,1.06,1.453,1.776c0.358,0.718,0.608,1.472,0.754,2.26
		c0.144,0.791,0.216,1.545,0.216,2.261c0,1.076-0.126,2.314-0.377,3.714c-0.252,1.398-0.538,2.764-0.86,4.09
		c-0.323,1.328-0.61,2.494-0.861,3.498c-0.252,1.007-0.376,1.651-0.376,1.938c0.573,1.938,1.562,3.911,2.959,5.92
		c1.399,2.01,2.996,4.055,4.79,6.135c1.793,2.082,3.678,4.252,5.651,6.513c1.973,2.261,3.767,4.646,5.381,7.157
		c1.615,2.514,2.941,5.186,3.982,8.02c1.04,2.836,1.561,5.831,1.561,8.987c0,4.521-0.664,8.181-1.991,10.979
		c-1.327,2.798-3.104,4.951-5.326,6.458c3.229-1.292,6.26-3.588,9.095-6.889c2.834-3.301,5.452-7.086,7.856-11.356
		c2.403-4.268,4.629-8.733,6.674-13.398s3.856-9.006,5.436-13.024l4.198,1.076c-2.44,6.243-5.022,12.343-7.749,18.298
		c-2.729,5.957-5.813,11.267-9.257,15.931c-3.444,4.665-7.338,8.433-11.679,11.303c-4.344,2.869-9.312,4.305-14.907,4.305
		c-1.507,0-3.032-0.124-4.574-0.377c-1.544-0.25-3.052-0.646-4.521-1.185c-1.473-0.538-2.854-1.272-4.146-2.206
		c-1.292-0.932-2.405-2.045-3.337-3.337l3.552-2.368c0.646,1.007,1.65,1.938,3.015,2.8c1.361,0.859,3.156,1.292,5.382,1.292
		c2.152,0,4.036-0.448,5.65-1.347c1.614-0.896,2.978-2.115,4.09-3.659c1.111-1.542,1.938-3.354,2.476-5.437
		c0.539-2.08,0.808-4.305,0.808-6.673c0-4.879-0.7-9.077-2.099-12.593c-1.399-3.517-3.051-6.655-4.951-9.419
		c-1.902-2.762-3.84-5.291-5.813-7.588C1584.229,573.271,1582.706,570.938,1581.63,568.57z"/>
</g>
</svg>
