<?xml version="1.0" encoding="utf-8"?>
<!-- Generator: Adobe Illustrator 16.0.0, SVG Export Plug-In . SVG Version: 6.00 Build 0)  -->
<!DOCTYPE svg PUBLIC "-//W3C//DTD SVG 1.1//EN" "http://www.w3.org/Graphics/SVG/1.1/DTD/svg11.dtd">
<svg version="1.1" id="Layer_1" xmlns="http://www.w3.org/2000/svg" xmlns:xlink="http://www.w3.org/1999/xlink" x="0px" y="0px"
	 width="28.35px" height="28.35px" viewBox="0 0 28.35 28.35" enable-background="new 0 0 28.35 28.35" xml:space="preserve">
<path fill="#01B0BF" d="M14,3C7.373,3,2,8.373,2,15s5.373,12,12,12s12-5.373,12-12S20.627,3,14,3z M17.044,16H15c0,3,0,7,0,7h-3
	c0,0,0-4,0-7h-1v-3h1v-1.127c0-1.163,0.469-2.979,2.896-2.979L17,8.904V11c0,0-1.063,0-1.322,0C15.419,11,15,11.468,15,12.021V13
	h2.302L17.044,16z"/>
<rect x="-2" y="-1" fill="none" width="32" height="32"/>
<g>
</g>
<g>
</g>
<g>
</g>
<g>
</g>
<g>
</g>
<g>
</g>
</svg>
