<?xml version="1.0" encoding="utf-8"?>
<!-- Generator: Adobe Illustrator 16.0.0, SVG Export Plug-In . SVG Version: 6.00 Build 0)  -->
<!DOCTYPE svg PUBLIC "-//W3C//DTD SVG 1.1//EN" "http://www.w3.org/Graphics/SVG/1.1/DTD/svg11.dtd">
<svg version="1.1" id="Layer_1" xmlns="http://www.w3.org/2000/svg" xmlns:xlink="http://www.w3.org/1999/xlink" x="0px" y="0px"
	 width="28.35px" height="28.35px" viewBox="0 0 28.35 28.35" enable-background="new 0 0 28.35 28.35" xml:space="preserve">
<path fill="#01B0BF" d="M13.757,14c0.341,0,0.617-0.123,0.831-0.369c0.332-0.377,0.477-0.902,0.391-1.561
	C14.827,10.905,13.99,10,13.115,10H13.08c-0.317,0-0.597,0.043-0.812,0.287c-0.327,0.373-0.465,0.911-0.379,1.564
	c0.156,1.185,0.993,2.148,1.866,2.148C13.755,14,13.756,14,13.757,14z"/>
<path fill="#01B0BF" d="M14.663,17.657l-0.249-0.353c-0.261-0.08-0.533-0.306-0.808-0.306h-0.035c-1.274,0-2.392,0.958-2.392,1.845
	c0,0.965,0.96,1.812,2.184,1.812c1.611,0,2.428-0.515,2.428-1.618c0-0.107-0.014-0.192-0.038-0.301
	C15.643,18.303,15.252,18.061,14.663,17.657z"/>
<path fill="#01B0BF" d="M15,3C8.373,3,3,8.373,3,15s5.373,12,12,12s12-5.373,12-12S21.627,3,15,3z M13.36,22.064
	c-2.523,0-4.354-1.252-4.354-2.767c0-1.706,1.919-3.299,4.191-3.299c0.045,0,0.09,0,0.135,0c-0.171,0-0.257-0.412-0.257-0.711
	c0-0.177,0.032-0.291,0.091-0.478c-1.85-0.006-3.296-1.413-3.296-3.253c0-1.748,2.026-3.559,3.942-3.559H19l-1.836,1h-0.9
	c0.11,0,0.83,1.156,0.735,2.665c-0.058,0.925-0.506,1.948-1.229,2.516c-0.638,0.495-0.662,0.624-0.662,0.917
	c0,0.178,0.473,0.688,0.937,1.018c1.101,0.775,1.509,1.535,1.509,2.81C17.553,20.486,16.113,22.064,13.36,22.064z M23,13h-2v2h-1v-2
	h-2v-1h2v-2h1v2h2V13z"/>
<rect x="-1" y="-1" fill="none" width="32" height="32"/>
<g>
</g>
<g>
</g>
<g>
</g>
<g>
</g>
<g>
</g>
<g>
</g>
</svg>
