<?xml version="1.0" encoding="utf-8"?>
<!-- Generator: Adobe Illustrator 16.0.0, SVG Export Plug-In . SVG Version: 6.00 Build 0)  -->
<!DOCTYPE svg PUBLIC "-//W3C//DTD SVG 1.1//EN" "http://www.w3.org/Graphics/SVG/1.1/DTD/svg11.dtd">
<svg version="1.1" id="Layer_1" xmlns="http://www.w3.org/2000/svg" xmlns:xlink="http://www.w3.org/1999/xlink" x="0px" y="0px"
	 width="28.346px" height="28.347px" viewBox="0 0 28.346 28.347" enable-background="new 0 0 28.346 28.347" xml:space="preserve">
<path fill="#01B0BF" d="M14.128,2.243c-6.627,0-12,5.373-12,12s5.373,12,12,12s12-5.373,12-12S20.755,2.243,14.128,2.243z
	 M10.128,20.243h-0.27h-1.73v-9h2V20.243z M9.167,10.243H9.147c-0.986,0-1.623-0.822-1.623-1.67c0-0.867,0.656-1.661,1.662-1.661
	c1.004,0,1.623,0.755,1.642,1.622C10.828,9.382,10.189,10.243,9.167,10.243z M21.128,20.243h-2v-5.229c0-1.188-0.938-1.742-2-1.742
	c-1.162,0-2,1.479-2,1.742v5.229h-2v-0.58c0,0,0-7.42,0-8.42h2v1.448c1-0.604,1.415-1.448,3-1.448c1.932,0,3,0,3,3V20.243z"/>
<rect x="-1.872" y="-1.757" fill="none" width="32" height="32"/>
<g>
</g>
<g>
</g>
<g>
</g>
<g>
</g>
<g>
</g>
<g>
</g>
</svg>
