<?xml version="1.0" encoding="utf-8"?>
<!-- Generator: Adobe Illustrator 16.0.0, SVG Export Plug-In . SVG Version: 6.00 Build 0)  -->
<!DOCTYPE svg PUBLIC "-//W3C//DTD SVG 1.1//EN" "http://www.w3.org/Graphics/SVG/1.1/DTD/svg11.dtd">
<svg version="1.1" id="Layer_1" xmlns="http://www.w3.org/2000/svg" xmlns:xlink="http://www.w3.org/1999/xlink" x="0px" y="0px"
	 width="28.35px" height="28.35px" viewBox="0 0 28.35 28.35" enable-background="new 0 0 28.35 28.35" xml:space="preserve">
<path fill="#01B0BF" d="M14,2C7.373,2,2,7.375,2,14c0,6.627,5.373,12,12,12s12-5.373,12-12S20.627,2,14,2z M20,12
	c0.175,2.068-0.627,3.229-0.911,3.861c-0.282,0.632-1.676,3.419-5.618,4.529c-3.942,1.109-7.013-1.133-7.013-1.133
	c2.766,0.35,4.508-1.285,4.508-1.285c-2.352-0.218-2.809-2.156-2.809-2.156c1.002,0.154,1.264-0.107,1.264-0.107
	c-2.548-0.762-2.374-3.05-2.374-3.05c1.045,0.502,1.328,0.306,1.328,0.306C6.089,11.114,7.482,8.85,7.482,8.85
	c2.984,3.484,6.38,3.267,6.38,3.267c-0.086-0.757-0.086-2.773,1.917-3.586c2.011-0.816,3.328,0.431,3.328,0.431
	C19.915,8.911,22,8,22,8c-0.438,1.222-2.214,2.235-2.214,2.235C20.505,10.185,22,10,22,10C21.848,10.42,20,12,20,12z"/>
<rect x="-2" y="-2" fill="none" width="32" height="32"/>
<g>
</g>
<g>
</g>
<g>
</g>
<g>
</g>
<g>
</g>
<g>
</g>
</svg>
